<svg width="10" height="16" viewBox="0 0 10 16" fill="none" xmlns="http://www.w3.org/2000/svg">
<path d="M9.50391 7.64063C9.60807 7.74479 9.66016 7.86458 9.66016 8C9.66016 8.13542 9.60807 8.25521 9.50391 8.35938L2.22266 15.6406C2.11849 15.7448 1.9987 15.7969 1.86328 15.7969C1.72786 15.7969 1.60807 15.7448 1.50391 15.6406L0.722656 14.8594C0.61849 14.7552 0.566406 14.6354 0.566406 14.5C0.566406 14.3646 0.61849 14.2448 0.722656 14.1406L6.86328 8L0.722656 1.85938C0.61849 1.75521 0.566406 1.63542 0.566406 1.5C0.566406 1.36458 0.61849 1.24479 0.722656 1.14063L1.50391 0.359375C1.60807 0.255208 1.72786 0.203125 1.86328 0.203125C1.9987 0.203125 2.11849 0.255208 2.22266 0.359375L9.50391 7.64063Z" fill="white"/>
<path d="M9.50391 7.64063C9.60807 7.74479 9.66016 7.86458 9.66016 8C9.66016 8.13542 9.60807 8.25521 9.50391 8.35938L2.22266 15.6406C2.11849 15.7448 1.9987 15.7969 1.86328 15.7969C1.72786 15.7969 1.60807 15.7448 1.50391 15.6406L0.722656 14.8594C0.61849 14.7552 0.566406 14.6354 0.566406 14.5C0.566406 14.3646 0.61849 14.2448 0.722656 14.1406L6.86328 8L0.722656 1.85938C0.61849 1.75521 0.566406 1.63542 0.566406 1.5C0.566406 1.36458 0.61849 1.24479 0.722656 1.14063L1.50391 0.359375C1.60807 0.255208 1.72786 0.203125 1.86328 0.203125C1.9987 0.203125 2.11849 0.255208 2.22266 0.359375L9.50391 7.64063Z" fill="white"/>
</svg>
